HIERARCHY
ROOT Hips
{
	OFFSET 0.00 0.00 0.00
	CHANNELS 6 Xposition Yposition Zposition Xrotation Yrotation Zrotation
	JOINT Spine
	{
		OFFSET 0.00000 5.89385 0.00000
		CHANNELS 3 Xrotation Yrotation Zrotation
		JOINT Head
		{
			OFFSET 0.00000 16.44715 0.00000
			CHANNELS 3 Xrotation Yrotation Zrotation
			End Site
			{
				OFFSET 0.00000 4.52755 0.00000
			}
		}
		JOINT LeftShoulder
		{
			OFFSET 0.00000 10.90038 0.00000
			CHANNELS 3 Xrotation Yrotation Zrotation
			JOINT LeftArm
			{
				OFFSET 8.21946 0.00000 0.00000
				CHANNELS 3 Xrotation Yrotation Zrotation
				JOINT LeftForeArm
				{
					OFFSET 11.09494 0.00000 0.00000
					CHANNELS 3 Yrotation Zrotation Xrotation
					JOINT LeftHand
					{
						OFFSET 9.10388 0.00000 0.00000
						CHANNELS 3 Xrotation Yrotation Zrotation
						JOINT LeftHandThumb1
						{
							OFFSET 0.00000 0.00000 0.00000
							CHANNELS 3 Xrotation Zrotation Yrotation
							End Site
							{
								OFFSET 0.00000 0.00000 3.93700
							}
						}
						End Site
						{
							OFFSET 3.93700 0.00000 0.00000
						}
					}
				}
			}
		}
		JOINT RightShoulder
		{
			OFFSET 0.00000 10.90038 0.00000
			CHANNELS 3 Xrotation Yrotation Zrotation
			JOINT RightArm
			{
				OFFSET -8.21946 0.00000 0.00000
				CHANNELS 3 Xrotation Yrotation Zrotation
				JOINT RightForeArm
				{
					OFFSET -11.09494 0.00000 0.00000
					CHANNELS 3 Yrotation Zrotation Xrotation
					JOINT RightHand
					{
						OFFSET -9.10388 0.00000 0.00000
						CHANNELS 3 Xrotation Yrotation Zrotation
						JOINT RightHandThumb1
						{
							OFFSET 0.00000 0.00000 0.00000
							CHANNELS 3 Xrotation Zrotation Yrotation
							End Site
							{
								OFFSET 0.00000 0.00000 3.93700
							}
						}
						End Site
						{
							OFFSET -3.93700 0.00000 0.00000
						}
					}
				}
			}
		}
	}
	JOINT LeftUpLeg
	{
		OFFSET 3.69794 0.00000 0.00000
		CHANNELS 3 Xrotation Yrotation Zrotation
		JOINT LeftLeg
		{
			OFFSET 0.00000 -16.18147 0.00000
			CHANNELS 3 Xrotation Yrotation Zrotation
			JOINT LeftFoot
			{
				OFFSET 0.00000 -16.50139 0.00000
				CHANNELS 3 Xrotation Yrotation Zrotation
				JOINT LeftToeBase
				{
					OFFSET 0.00000 -1.65857 6.18989
					CHANNELS 3 Xrotation Yrotation Zrotation
					End Site
					{
						OFFSET 0.00000 0.00000 2.95275
					}
				}
			}
		}
	}
	JOINT RightUpLeg
	{
		OFFSET -3.69794 0.00000 0.00000
		CHANNELS 3 Xrotation Yrotation Zrotation
		JOINT RightLeg
		{
			OFFSET 0.00000 -16.18147 0.00000
			CHANNELS 3 Xrotation Yrotation Zrotation
			JOINT RightFoot
			{
				OFFSET 0.00000 -16.50139 0.00000
				CHANNELS 3 Xrotation Yrotation Zrotation
				JOINT RightToeBase
				{
					OFFSET 0.00000 -1.65857 6.18989
					CHANNELS 3 Xrotation Yrotation Zrotation
					End Site
					{
						OFFSET 0.00000 0.00000 2.95275
					}
				}
			}
		}
	}
}
MOTION
Frames: 15
Frame Time: 0.008333
 8.5897 36.3176 -0.0354 91.9481 -62.6881 93.0134 -27.4248 3.1385 -2.4826 10.7149 8.5591 4.1583 8.4218 9.3637 29.3786 -40.2062 11.8631 -31.9298 -0.8918 0.0000 12.4012 2.6824 11.7844 -12.9204 33.1476 -0.0000 26.2537 35.0472 -30.1986 -11.4658 -69.9116 3.4862 35.3649 -2.8389 -0.0000 -8.1064 0.3690 -2.8165 7.4678 32.8623 0.0000 -24.3270 -29.6846 11.4244 6.1157 12.6186 0.0000 0.0000 -8.1354 13.6681 -7.8448 7.3202 -0.0000 0.0000 -30.0202 -2.0611 -7.0004 11.6497 -0.0000 0.0000 -8.2690 -15.6391 13.9549 9.6815 0.0000 0.0000
 8.5916 36.3185 -0.0339 91.9407 -62.6884 93.0077 -27.4244 3.1339 -2.4783 10.7516 8.5172 4.1058 8.4082 9.3496 29.3784 -40.1834 11.8538 -31.9347 -0.8697 0.0000 12.3596 2.6799 11.7754 -12.9180 33.1476 -0.0000 26.2537 35.0433 -30.2050 -11.4664 -69.9344 3.4684 35.3759 -2.8165 -0.0000 -8.1026 0.3719 -2.8245 7.5046 32.8623 0.0000 -24.3270 -29.6876 11.4308 6.1113 12.6180 0.0000 -0.0000 -8.1290 13.6627 -7.8550 7.3568 0.0000 -0.0000 -30.0295 -2.0619 -7.0074 11.6598 0.0000 -0.0000 -8.2621 -15.6357 13.9499 9.6681 -0.0000 0.0000
 8.5934 36.3191 -0.0320 91.9336 -62.6887 93.0030 -27.4277 3.1271 -2.4722 10.7732 8.4829 4.0790 8.3981 9.3426 29.3723 -40.1851 11.8522 -31.9352 -0.8567 0.0000 12.3487 2.6783 11.7761 -12.9096 33.1476 -0.0000 26.2537 35.0241 -30.2091 -11.4693 -69.9555 3.4583 35.3779 -2.7894 -0.0000 -8.0785 0.3753 -2.8240 7.5732 32.8623 0.0000 -24.3270 -29.6902 11.4319 6.1068 12.6189 0.0000 0.0000 -8.1225 13.6564 -7.8616 7.3496 0.0000 0.0000 -30.0383 -2.0777 -7.0133 11.6673 0.0000 -0.0000 -8.2543 -15.6262 13.9524 9.7040 -0.0000 0.0000
 8.5952 36.3198 -0.0306 91.8818 -62.6800 92.9518 -27.4416 3.0930 -2.4705 10.7682 8.4639 4.0764 8.3862 9.3408 29.3624 -40.1929 11.8512 -31.9254 -0.8341 0.0000 12.3402 2.6819 11.7941 -12.9077 33.1476 -0.0000 26.2537 35.0150 -30.2100 -11.4686 -69.9703 3.4633 35.3775 -2.7659 -0.0000 -8.0690 0.3810 -2.8474 7.6251 32.8623 0.0000 -24.3270 -29.7025 11.4115 6.0972 12.6137 -0.0000 0.0000 -8.1102 13.6583 -7.8676 7.3575 0.0000 0.0000 -30.0496 -2.1076 -7.0241 11.6648 -0.0000 0.0000 -8.2483 -15.6185 13.9541 9.7128 0.0000 0.0000
 8.5967 36.3209 -0.0293 91.8797 -62.6785 92.9504 -27.4453 3.0894 -2.4673 10.7807 8.4302 4.0719 8.3728 9.3369 29.3640 -40.2296 11.8694 -31.9222 -0.8102 0.0000 12.3552 2.6799 11.7939 -12.8987 33.1476 -0.0000 26.2537 34.9731 -30.2095 -11.4817 -69.9364 3.4806 35.3795 -2.7576 -0.0000 -8.0793 0.3798 -2.8291 7.6497 32.8623 0.0000 -24.3270 -29.7047 11.4338 6.0959 12.6048 0.0000 -0.0000 -8.0987 13.6318 -7.8625 7.3438 0.0000 -0.0000 -30.0451 -2.1040 -7.0255 11.6481 -0.0000 0.0000 -8.2341 -15.6190 13.9427 9.6796 0.0000 0.0000
 8.5982 36.3217 -0.0275 91.8848 -62.6765 92.9569 -27.4514 3.0827 -2.4629 10.7996 8.4057 4.0573 8.3575 9.3340 29.3673 -40.2556 11.8925 -31.9205 -0.7865 0.0000 12.3519 2.6744 11.7859 -12.8815 33.1476 -0.0000 26.2537 34.9537 -30.2056 -11.4869 -69.9270 3.4955 35.3761 -2.7511 -0.0000 -8.0690 0.3791 -2.8144 7.6755 32.8623 0.0000 -24.3270 -29.6983 11.4330 6.0925 12.5885 -0.0000 0.0000 -8.0923 13.6298 -7.8655 7.3910 -0.0000 0.0000 -30.0408 -2.1013 -7.0268 11.6291 -0.0000 -0.0000 -8.2210 -15.6230 13.9390 9.6986 -0.0000 0.0000
 8.5991 36.3225 -0.0261 91.8775 -62.6748 92.9508 -27.4610 3.0777 -2.4618 10.8332 8.3775 4.0527 8.3463 9.3261 29.3721 -40.2758 11.9072 -31.9179 -0.7687 0.0000 12.3305 2.6767 11.8046 -12.8727 33.1476 -0.0000 26.2537 34.9408 -30.2077 -11.4940 -69.9028 3.5205 35.3792 -2.7679 -0.0000 -8.0941 0.3761 -2.7991 7.6560 32.8623 0.0000 -24.3270 -29.6935 11.4427 6.0864 12.5695 -0.0000 0.0000 -8.0809 13.6236 -7.8615 7.3610 0.0000 -0.0000 -30.0350 -2.1075 -7.0306 11.6094 -0.0000 0.0000 -8.2074 -15.6276 13.9407 9.7166 -0.0000 0.0000
 8.6008 36.3231 -0.0253 91.8803 -62.6737 92.9555 -27.4668 3.0732 -2.4631 10.8630 8.3438 4.0415 8.3195 9.3150 29.3810 -40.2841 11.9290 -31.9131 -0.7549 0.0000 12.3340 2.6741 11.7894 -12.8766 33.1476 -0.0000 26.2537 34.9226 -30.2045 -11.5025 -69.9100 3.5329 35.3798 -2.8091 -0.0000 -8.0914 0.3771 -2.8077 7.6531 32.8623 0.0000 -24.3270 -29.6906 11.4508 6.0837 12.5587 0.0000 0.0000 -8.0717 13.6131 -7.8638 7.3453 -0.0000 0.0000 -30.0306 -2.1203 -7.0338 11.5901 -0.0000 -0.0000 -8.1938 -15.6097 13.9414 9.7051 -0.0000 -0.0000
 8.6022 36.3238 -0.0236 91.8875 -62.6730 92.9664 -27.4730 3.0698 -2.4618 10.9134 8.3064 4.0046 8.3007 9.2994 29.3787 -40.3091 11.9588 -31.8918 -0.7456 0.0000 12.3683 2.6822 11.8085 -12.8940 33.1476 -0.0000 26.2537 34.9061 -30.2001 -11.5154 -69.9308 3.5334 35.3776 -2.8515 -0.0000 -8.0879 0.3775 -2.8184 7.6317 32.8623 0.0000 -24.3270 -29.6815 11.4587 6.0765 12.5378 0.0000 -0.0000 -8.0617 13.6132 -7.8626 7.3466 0.0000 -0.0000 -30.0223 -2.1108 -7.0374 11.5677 -0.0000 0.0000 -8.1848 -15.6166 13.9288 9.6965 -0.0000 0.0000
 8.6037 36.3242 -0.0223 91.9013 -62.6733 92.9836 -27.4740 3.0720 -2.4649 10.9291 8.2619 4.0165 8.2926 9.2995 29.3792 -40.3346 11.9693 -31.8778 -0.7357 0.0000 12.3636 2.6878 11.8286 -12.8996 33.1476 -0.0000 26.2537 34.8914 -30.1893 -11.5236 -69.9375 3.5284 35.3649 -2.8860 -0.0000 -8.1114 0.3774 -2.8200 7.6261 32.8623 0.0000 -24.3270 -29.6769 11.4668 6.0710 12.5289 0.0000 -0.0000 -8.0607 13.6149 -7.8575 7.3686 -0.0000 -0.0000 -30.0174 -2.1165 -7.0412 11.5491 -0.0000 -0.0000 -8.1745 -15.6027 13.9214 9.7080 -0.0000 0.0000
 8.6056 36.3243 -0.0205 91.9255 -62.6792 93.0167 -27.4668 3.0754 -2.4676 10.9496 8.2245 4.0008 8.2816 9.3056 29.3762 -40.3250 11.9582 -31.8746 -0.7290 0.0000 12.3424 2.6787 11.8142 -12.8720 33.1476 -0.0000 26.2537 34.8515 -30.1801 -11.5547 -69.9447 3.4986 35.3626 -2.9012 -0.0000 -8.0927 0.3748 -2.8068 7.6083 32.8623 0.0000 -24.3270 -29.6605 11.4653 6.0611 12.5152 -0.0000 0.0000 -8.0560 13.6242 -7.8550 7.3830 -0.0000 0.0000 -30.0073 -2.0989 -7.0479 11.5333 -0.0000 -0.0000 -8.1689 -15.6061 13.9189 9.7235 -0.0000 0.0000
 8.6076 36.3240 -0.0193 91.9502 -62.6843 93.0496 -27.4579 3.0881 -2.4744 10.9327 8.1904 4.0303 8.2694 9.2974 29.3755 -40.3063 11.9510 -31.8654 -0.7392 0.0000 12.3386 2.6684 11.7818 -12.8577 33.1476 -0.0000 26.2537 34.8375 -30.1806 -11.5611 -69.9768 3.4649 35.3535 -2.8949 -0.0000 -8.0916 0.3764 -2.8139 7.6223 32.8623 0.0000 -24.3270 -29.6569 11.4917 6.0564 12.5145 -0.0000 0.0000 -8.0558 13.6180 -7.8613 7.3582 -0.0000 0.0000 -30.0042 -2.0873 -7.0548 11.5276 0.0000 0.0000 -8.1674 -15.6010 13.9366 9.7173 -0.0000 -0.0000
 8.6095 36.3244 -0.0180 91.9752 -62.6874 93.0781 -27.4531 3.0961 -2.4742 10.9675 8.1413 3.9989 8.2790 9.3065 29.3566 -40.3012 11.9257 -31.8500 -0.7534 0.0000 12.3246 2.6701 11.7931 -12.8540 33.1476 -0.0000 26.2537 34.8426 -30.1778 -11.5540 -69.9801 3.4613 35.3333 -2.8699 -0.0000 -8.1186 0.3753 -2.8145 7.5977 32.8623 0.0000 -24.3270 -29.6510 11.4866 6.0516 12.5129 0.0000 0.0000 -8.0551 13.6326 -7.8548 7.3735 -0.0000 0.0000 -29.9979 -2.0742 -7.0560 11.5150 -0.0000 0.0000 -8.1559 -15.6017 13.9335 9.7285 -0.0000 0.0000
 8.6117 36.3246 -0.0164 91.9996 -62.6893 93.1062 -27.4456 3.1010 -2.4721 10.9735 8.1055 3.9946 8.2937 9.3151 29.3373 -40.3088 11.9261 -31.8291 -0.7823 0.0000 12.3212 2.6691 11.7943 -12.8478 33.1476 -0.0000 26.2537 34.8379 -30.1831 -11.5538 -69.9820 3.4609 35.3244 -2.8383 -0.0000 -8.1208 0.3766 -2.8326 7.5757 32.8623 0.0000 -24.3270 -29.6492 11.4805 6.0466 12.5156 0.0000 -0.0000 -8.0550 13.6486 -7.8396 7.3675 0.0000 -0.0000 -29.9945 -2.0642 -7.0598 11.5018 -0.0000 -0.0000 -8.1439 -15.5931 13.9262 9.7115 -0.0000 0.0000
 8.6145 36.3250 -0.0150 92.0255 -62.6929 93.1383 -27.4334 3.0980 -2.4703 10.9676 8.0858 3.9816 8.3011 9.3189 29.3068 -40.3130 11.9350 -31.7954 -0.8208 0.0000 12.3356 2.6632 11.7997 -12.8151 33.1476 -0.0000 26.2537 34.8530 -30.1907 -11.5468 -69.9991 3.4782 35.3182 -2.8214 -0.0000 -8.1059 0.3737 -2.8169 7.5604 32.8623 0.0000 -24.3270 -29.6487 11.4833 6.0409 12.5197 -0.0000 0.0000 -8.0521 13.6612 -7.8393 7.3706 0.0000 -0.0000 -29.9990 -2.0665 -7.0644 11.4991 -0.0000 0.0000 -8.1320 -15.5773 13.9367 9.7268 -0.0000 0.0000
